<svg
          width="227"
          height="259"
          fill="none"
          xmlns="http://www.w3.org/2000/svg"
        >
          <path
            d="M204.98 224.91c6.89-7.61 11.73-17.68 10.82-27.91-1.46-16.39-16.86-29.2-17.58-45.64-.27-6.25 1.66-12.38 3.97-18.19 10.51-26.36 29.91-52.75 22.69-80.2-3.13-11.9-11.08-22-20.11-30.36-9.19-8.51-19.87-15.66-31.82-19.42C137.71-7.88 97.57 14.82 82.2 48.41c-7.07 15.46-9.88 32.81-18.64 47.39-11.05 18.4-30.11 30.15-46.76 43.69-5.19 4.22-10.32 8.84-13.21 14.87C.65 160.49.3 167.51.35 174.3c.09 13.28 1.74 27.27 9.56 38 10.34 14.19 28.77 19.39 45.8 23.67 28.14 7.08 62.07 21.88 91.12 22.05 19.77.11 45.55-19.58 58.14-33.12l.01.01Z"
            stroke="#00A5E0"
            stroke-width=".61"
            stroke-miterlimit="10"
          />
          <path
            d="M86.31 57.81c-3.12 6.52-5.54 13.35-7.93 20.23-2.79 8.02-5.58 16.03-9.89 23.35-4.14 7.02-9.45 13.07-15.38 18.6-8.54 7.98-18.36 14.91-27.51 22.29-4.85 3.91-9.69 8.14-12.5 13.65-2.87 5.6-3.42 12.02-3.52 18.33 0 .36 0 .73-.01 1.1-.08 12 1.79 24.6 8.96 34.22 9.55 12.83 26.29 17.6 41.83 21.47 5.85 1.45 11.98 3.25 18.25 5.17 21.31 6.49 44.41 14.3 64.91 14.47 18.77.22 42.82-16.67 54.97-29.61 6.08-6.47 10.36-15.08 10.23-23.9 0-.6-.04-1.19-.09-1.79-1.28-15.13-15.45-26.95-16.42-42.04-.37-5.74 1.22-11.38 3.24-16.75 8.73-23.19 25.45-46.38 20.93-70.41-.19-1-.41-2.01-.68-3.01-2.86-10.88-10.1-20.13-18.32-27.81-8.3-7.72-17.93-14.24-28.72-17.7-18.15-5.84-37.76-1.83-53.91 8.35-12.17 7.67-22.25 18.89-28.44 31.8v-.01Z"
            stroke="#00A5E0"
            stroke-width=".61"
            stroke-miterlimit="10"
          />
          <path
            d="M90.42 67.21c-2.99 5.9-5.45 12.03-7.78 18.29-2.72 7.31-5.32 14.69-9.22 21.47-3.74 6.51-8.5 12.17-13.85 17.35-7.72 7.48-16.69 13.98-25.17 20.74-4.51 3.59-9.05 7.44-11.8 12.42-2.81 5.08-3.55 10.9-3.79 16.72-.01.34-.03.67-.04 1.01-.33 11.08 1.63 22.79 8.37 31.63C35.9 218.31 50.95 222.66 65 226.1c5.3 1.3 10.84 2.88 16.51 4.56 19.28 5.69 40.13 12.39 58.7 12.66 17.77.26 39.99-13.85 51.79-26.1 5.64-5.85 9.61-13.74 9.53-21.83 0-.55-.03-1.09-.07-1.64-1.11-13.86-14.04-24.69-15.27-38.44-.46-5.22.79-10.38 2.51-15.3 7.37-21.07 22.53-42.13 18.43-63.92-.17-.91-.37-1.82-.61-2.73-2.59-9.86-9.12-18.26-16.53-25.25-7.41-6.94-16-12.81-25.62-15.99-16.19-5.36-33.72-2.01-48.24 6.94-10.94 6.74-19.94 16.75-25.71 28.15Z"
            stroke="#00A5E0"
            stroke-width=".61"
            stroke-miterlimit="10"
          />
          <path
            d="M94.52 76.61c-2.85 5.28-5.36 10.7-7.63 16.36-2.64 6.6-5.05 13.35-8.55 19.6-3.35 5.99-7.55 11.27-12.32 16.1-6.89 6.99-15.03 13.05-22.82 19.19-4.18 3.28-8.42 6.73-11.09 11.2-2.75 4.55-3.68 9.78-4.06 15.1l-.06.93c-.58 10.16 1.46 20.99 7.78 29.03 7.96 10.12 21.33 14.03 33.89 17.05 4.75 1.14 9.7 2.51 14.77 3.95 17.25 4.9 35.85 10.52 52.49 10.85 16.77.34 37.16-11.04 48.61-22.58 5.2-5.24 8.86-12.4 8.83-19.76 0-.5-.02-.99-.06-1.49-.93-12.6-12.63-22.43-14.11-34.84-.56-4.71.36-9.38 1.78-13.86 6.01-18.94 19.6-37.88 15.92-57.43-.15-.81-.34-1.63-.55-2.45-2.32-8.84-8.12-16.4-14.74-22.69-6.49-6.17-14.07-11.38-22.52-14.28-14.24-4.88-29.68-2.2-42.58 5.52-9.72 5.82-17.64 14.62-22.98 24.5Z"
            stroke="#00A5E0"
            stroke-width=".61"
            stroke-miterlimit="10"
          />
          <path
            d="M98.62 86.01c-2.72 4.66-5.28 9.37-7.48 14.42-2.57 5.89-4.79 12-7.88 17.73-2.96 5.47-6.6 10.37-10.8 14.85-6.07 6.49-13.36 12.12-20.48 17.63-3.84 2.96-7.78 6.04-10.38 9.97-2.67 4.04-3.82 8.66-4.34 13.49-.03.28-.06.56-.08.84-.83 9.24 1.29 19.19 7.2 26.43 7.15 8.77 18.84 12.25 29.93 14.84 4.2.98 8.57 2.14 13.03 3.35 15.22 4.1 31.57 8.65 46.28 9.04 15.77.42 34.31-8.23 45.44-19.07 4.76-4.64 8.12-11.06 8.14-17.69 0-.45-.01-.9-.04-1.34-.75-11.34-11.21-20.17-12.96-31.24-.66-4.2-.07-8.38 1.05-12.42 4.67-16.8 16.68-33.63 13.42-50.95-.14-.72-.3-1.44-.49-2.16-2.05-7.82-7.14-14.54-12.95-20.14-5.6-5.39-12.13-9.96-19.42-12.56-12.28-4.4-25.64-2.38-36.91 4.11-8.49 4.89-15.36 12.49-20.25 20.86l-.03.01Z"
            stroke="#00A5E0"
            stroke-width=".61"
            stroke-miterlimit="10"
          />
          <path
            d="M102.73 95.41c-2.6 4.05-5.19 8.04-7.33 12.48-2.5 5.18-4.53 10.66-7.21 15.86a67.813 67.813 0 0 1-9.27 13.59c-5.24 6-11.69 11.19-18.14 16.08-3.5 2.65-7.14 5.34-9.68 8.75-2.61 3.51-3.95 7.53-4.61 11.88-.04.25-.07.5-.11.76-1.08 8.31 1.11 17.39 6.61 23.84 6.34 7.43 16.36 10.46 25.96 12.63 3.64.82 7.43 1.77 11.28 2.74 13.19 3.3 27.29 6.8 40.07 7.23 14.77.5 31.46-5.44 42.26-15.56 4.31-4.04 7.37-9.73 7.44-15.63 0-.4 0-.8-.03-1.19-.58-10.08-9.8-17.91-11.8-27.63-.75-3.68-.5-7.37.32-10.97 3.34-14.65 13.75-29.38 10.92-44.46-.12-.63-.26-1.25-.42-1.88-1.77-6.8-6.15-12.67-11.17-17.58-4.7-4.6-10.2-8.53-16.33-10.85-10.33-3.92-21.6-2.57-31.24 2.69-7.27 3.97-13.11 10.34-17.52 17.21v.01Z"
            stroke="#00A5E0"
            stroke-width=".61"
            stroke-miterlimit="10"
          />
          <path
            d="M106.83 104.8c-2.5 3.43-5.11 6.71-7.18 10.54-2.43 4.47-4.26 9.32-6.54 13.98-2.18 4.43-4.69 8.57-7.74 12.34-4.42 5.5-10.02 10.26-15.8 14.53-3.17 2.33-6.51 4.64-8.97 7.53-2.55 2.99-4.08 6.41-4.88 10.27-.05.22-.09.45-.13.67-1.34 7.39.92 15.6 6.02 21.24 5.51 6.09 13.88 8.67 21.99 10.43 3.09.66 6.29 1.4 9.54 2.14 11.17 2.5 23.01 4.95 33.86 5.43 13.77.6 28.59-2.65 39.09-12.05 3.85-3.45 6.62-8.39 6.74-13.56 0-.35 0-.7-.01-1.04-.4-8.81-8.39-15.65-10.65-24.03-.85-3.17-.92-6.36-.41-9.53 2.03-12.49 10.83-25.13 8.41-37.97-.1-.53-.22-1.07-.36-1.6-1.5-5.78-5.17-10.8-9.38-15.02-3.8-3.82-8.27-7.11-13.23-9.13-8.38-3.44-17.56-2.75-25.58 1.28-6.04 3.04-10.88 8.19-14.79 13.56v-.01Z"
            stroke="#00A5E0"
            stroke-width=".61"
            stroke-miterlimit="10"
          />
          <path
            d="M110.94 114.2c-2.41 2.8-5.02 5.38-7.04 8.6-2.36 3.76-4 7.98-5.87 12.11-1.78 3.91-3.74 7.67-6.22 11.09-3.6 5-8.36 9.33-13.46 12.98-2.83 2.02-5.88 3.93-8.27 6.3-2.49 2.47-4.21 5.29-5.16 8.66-.05.19-.1.39-.15.59-1.59 6.47.72 13.82 5.43 18.65 4.66 4.77 11.4 6.89 18.02 8.22 2.54.51 5.16 1.03 7.8 1.53 9.14 1.7 18.73 3.12 27.65 3.62 12.78.71 25.7.1 35.91-8.54 3.39-2.87 5.87-7.05 6.05-11.49.01-.3.01-.6 0-.9-.23-7.55-6.97-13.39-9.5-20.43-.95-2.66-1.33-5.35-1.14-8.09.75-10.32 7.9-20.88 5.91-31.48-.08-.44-.18-.88-.29-1.32-1.23-4.76-4.19-8.93-7.59-12.47-2.91-3.03-6.33-5.68-10.13-7.42-6.42-2.96-13.52-2.94-19.91-.14-4.82 2.11-8.7 6.01-12.06 9.91l.02.02Z"
            stroke="#00A5E0"
            stroke-width=".61"
            stroke-miterlimit="10"
          />
          <path
            d="M115.04 123.6c-2.37 2.14-4.93 4.05-6.89 6.67-2.29 3.06-3.73 6.63-5.2 10.24-1.39 3.4-2.79 6.77-4.69 9.84-2.77 4.51-6.69 8.4-11.12 11.43-2.49 1.7-5.25 3.23-7.56 5.08-2.43 1.94-4.35 4.17-5.43 7.05-.06.16-.12.33-.18.5-1.84 5.55.5 12.06 4.84 16.05 3.79 3.48 8.92 5.1 14.05 6.01 1.99.35 4.02.66 6.06.92 7.11.91 14.45 1.31 21.43 1.81 11.77.85 22.77 2.81 32.73-5.03 2.92-2.29 5.12-5.71 5.35-9.42.02-.25.02-.5.02-.75-.05-6.29-5.56-11.13-8.34-16.83-1.04-2.15-1.73-4.34-1.87-6.64-.47-8.15 4.98-16.63 3.41-24.99-.07-.35-.14-.69-.23-1.03-.96-3.73-3.22-7.05-5.8-9.91-2.02-2.24-4.4-4.25-7.03-5.71-4.47-2.48-9.48-3.13-14.24-1.55-3.59 1.19-6.59 3.79-9.33 6.26h.02Z"
            stroke="#00A5E0"
            stroke-width=".61"
            stroke-miterlimit="10"
          />
          <path
            d="M146.61 190.32c2.44-1.74 4.37-4.37 4.65-7.35.68-7.24-7.89-11.99-9.75-19.02-1.59-6.01 2.05-12.39.9-18.5-.57-3.02-2.26-5.7-4.18-8.1-3.11-3.9-7.55-7.5-12.51-6.96-2.37.26-4.52 1.45-6.6 2.61-2.4 1.35-4.85 2.72-6.74 4.73-4.29 4.54-4.96 11.33-7.7 16.95a24.608 24.608 0 0 1-8.77 9.88c-4.58 2.94-10.52 4.75-12.76 9.7-2.09 4.63.23 10.36 4.26 13.45 4.03 3.09 9.32 4.01 14.4 4.12 5.08.11 10.17-.49 15.22 0 10.77 1.04 19.8 5.45 29.56-1.51h.02Z"
            stroke="#00A5E0"
            stroke-width=".61"
            stroke-miterlimit="10"
          />
        </svg>